<mxfile host="Electron" modified="2024-04-04T10:00:17.233Z" agent="Mozilla/5.0 (Windows NT 10.0; Win64; x64) AppleWebKit/537.36 (KHTML, like Gecko) draw.io/24.1.0 Chrome/120.0.6099.109 Electron/28.1.0 Safari/537.36" etag="YtUL_sbu915QsdhJcyzD" version="24.1.0" type="device">
  <diagram id="C5RBs43oDa-KdzZeNtuy" name="Page-1">
    <mxGraphModel dx="4320" dy="2688" grid="0" gridSize="10" guides="1" tooltips="1" connect="1" arrows="1" fold="1" page="0" pageScale="1" pageWidth="827" pageHeight="1169" math="0" shadow="0">
      <root>
        <mxCell id="WIyWlLk6GJQsqaUBKTNV-0" />
        <mxCell id="WIyWlLk6GJQsqaUBKTNV-1" parent="WIyWlLk6GJQsqaUBKTNV-0" />
        <mxCell id="am1QFlPMtwa2UrXQsI82-2" style="edgeStyle=orthogonalEdgeStyle;rounded=0;orthogonalLoop=1;jettySize=auto;html=1;entryX=0.5;entryY=0;entryDx=0;entryDy=0;" edge="1" parent="WIyWlLk6GJQsqaUBKTNV-1" source="am1QFlPMtwa2UrXQsI82-0" target="am1QFlPMtwa2UrXQsI82-1">
          <mxGeometry relative="1" as="geometry" />
        </mxCell>
        <mxCell id="am1QFlPMtwa2UrXQsI82-0" value="&lt;font color=&quot;#ffffff&quot;&gt;TODO APP&lt;/font&gt;" style="ellipse;whiteSpace=wrap;html=1;fillColor=#6d8764;fontColor=#ffffff;strokeColor=#3A5431;" vertex="1" parent="WIyWlLk6GJQsqaUBKTNV-1">
          <mxGeometry x="470" y="-366" width="120" height="80" as="geometry" />
        </mxCell>
        <mxCell id="am1QFlPMtwa2UrXQsI82-4" value="" style="edgeStyle=orthogonalEdgeStyle;rounded=0;orthogonalLoop=1;jettySize=auto;html=1;" edge="1" parent="WIyWlLk6GJQsqaUBKTNV-1" source="am1QFlPMtwa2UrXQsI82-1" target="am1QFlPMtwa2UrXQsI82-3">
          <mxGeometry relative="1" as="geometry" />
        </mxCell>
        <mxCell id="am1QFlPMtwa2UrXQsI82-1" value="Enter to Application" style="rounded=1;whiteSpace=wrap;html=1;fillColor=#76608a;fontColor=#ffffff;strokeColor=#432D57;" vertex="1" parent="WIyWlLk6GJQsqaUBKTNV-1">
          <mxGeometry x="470" y="-236" width="120" height="60" as="geometry" />
        </mxCell>
        <mxCell id="am1QFlPMtwa2UrXQsI82-6" value="" style="edgeStyle=orthogonalEdgeStyle;rounded=0;orthogonalLoop=1;jettySize=auto;html=1;entryX=0.5;entryY=0;entryDx=0;entryDy=0;" edge="1" parent="WIyWlLk6GJQsqaUBKTNV-1" source="am1QFlPMtwa2UrXQsI82-3" target="am1QFlPMtwa2UrXQsI82-5">
          <mxGeometry relative="1" as="geometry" />
        </mxCell>
        <mxCell id="am1QFlPMtwa2UrXQsI82-9" value="" style="edgeStyle=orthogonalEdgeStyle;rounded=0;orthogonalLoop=1;jettySize=auto;html=1;entryX=0.5;entryY=0;entryDx=0;entryDy=0;" edge="1" parent="WIyWlLk6GJQsqaUBKTNV-1" source="am1QFlPMtwa2UrXQsI82-3" target="am1QFlPMtwa2UrXQsI82-8">
          <mxGeometry relative="1" as="geometry" />
        </mxCell>
        <mxCell id="am1QFlPMtwa2UrXQsI82-3" value="&lt;font color=&quot;#ffffff&quot;&gt;Registered?&lt;/font&gt;" style="rhombus;whiteSpace=wrap;html=1;rounded=1;fillColor=#fa6800;fontColor=#000000;strokeColor=#C73500;" vertex="1" parent="WIyWlLk6GJQsqaUBKTNV-1">
          <mxGeometry x="480" y="-131" width="100" height="93" as="geometry" />
        </mxCell>
        <mxCell id="am1QFlPMtwa2UrXQsI82-48" style="edgeStyle=orthogonalEdgeStyle;rounded=0;orthogonalLoop=1;jettySize=auto;html=1;entryX=0;entryY=0.5;entryDx=0;entryDy=0;exitX=0;exitY=0.5;exitDx=0;exitDy=0;" edge="1" parent="WIyWlLk6GJQsqaUBKTNV-1" source="am1QFlPMtwa2UrXQsI82-5" target="am1QFlPMtwa2UrXQsI82-45">
          <mxGeometry relative="1" as="geometry">
            <Array as="points">
              <mxPoint x="236" y="17" />
              <mxPoint x="236" y="148" />
            </Array>
          </mxGeometry>
        </mxCell>
        <mxCell id="am1QFlPMtwa2UrXQsI82-5" value="Sign In" style="whiteSpace=wrap;html=1;rounded=1;fillColor=#76608a;fontColor=#ffffff;strokeColor=#432D57;" vertex="1" parent="WIyWlLk6GJQsqaUBKTNV-1">
          <mxGeometry x="269" y="-13" width="120" height="60" as="geometry" />
        </mxCell>
        <mxCell id="am1QFlPMtwa2UrXQsI82-50" style="edgeStyle=orthogonalEdgeStyle;rounded=0;orthogonalLoop=1;jettySize=auto;html=1;entryX=0.5;entryY=1;entryDx=0;entryDy=0;exitX=0.5;exitY=1;exitDx=0;exitDy=0;" edge="1" parent="WIyWlLk6GJQsqaUBKTNV-1" source="am1QFlPMtwa2UrXQsI82-8" target="am1QFlPMtwa2UrXQsI82-5">
          <mxGeometry relative="1" as="geometry">
            <mxPoint x="732" y="67" as="sourcePoint" />
          </mxGeometry>
        </mxCell>
        <mxCell id="am1QFlPMtwa2UrXQsI82-8" value="Sign Up" style="whiteSpace=wrap;html=1;rounded=1;fillColor=#76608a;fontColor=#ffffff;strokeColor=#432D57;" vertex="1" parent="WIyWlLk6GJQsqaUBKTNV-1">
          <mxGeometry x="683" y="-13" width="120" height="60" as="geometry" />
        </mxCell>
        <mxCell id="am1QFlPMtwa2UrXQsI82-19" value="" style="edgeStyle=orthogonalEdgeStyle;rounded=0;orthogonalLoop=1;jettySize=auto;html=1;" edge="1" parent="WIyWlLk6GJQsqaUBKTNV-1" source="am1QFlPMtwa2UrXQsI82-14" target="am1QFlPMtwa2UrXQsI82-18">
          <mxGeometry relative="1" as="geometry" />
        </mxCell>
        <mxCell id="am1QFlPMtwa2UrXQsI82-31" style="edgeStyle=orthogonalEdgeStyle;rounded=0;orthogonalLoop=1;jettySize=auto;html=1;" edge="1" parent="WIyWlLk6GJQsqaUBKTNV-1" source="am1QFlPMtwa2UrXQsI82-14" target="am1QFlPMtwa2UrXQsI82-16">
          <mxGeometry relative="1" as="geometry" />
        </mxCell>
        <mxCell id="am1QFlPMtwa2UrXQsI82-14" value="&lt;font color=&quot;#ffffff&quot;&gt;Choose panel&lt;/font&gt;" style="rhombus;whiteSpace=wrap;html=1;rounded=1;fillColor=#fa6800;fontColor=#000000;strokeColor=#C73500;" vertex="1" parent="WIyWlLk6GJQsqaUBKTNV-1">
          <mxGeometry x="480" y="245" width="100" height="93" as="geometry" />
        </mxCell>
        <mxCell id="am1QFlPMtwa2UrXQsI82-32" style="edgeStyle=orthogonalEdgeStyle;rounded=0;orthogonalLoop=1;jettySize=auto;html=1;" edge="1" parent="WIyWlLk6GJQsqaUBKTNV-1" source="am1QFlPMtwa2UrXQsI82-16" target="am1QFlPMtwa2UrXQsI82-27">
          <mxGeometry relative="1" as="geometry" />
        </mxCell>
        <mxCell id="am1QFlPMtwa2UrXQsI82-16" value="User Panel" style="whiteSpace=wrap;html=1;rounded=1;fillColor=#76608a;fontColor=#ffffff;strokeColor=#432D57;" vertex="1" parent="WIyWlLk6GJQsqaUBKTNV-1">
          <mxGeometry x="265" y="367" width="120" height="60" as="geometry" />
        </mxCell>
        <mxCell id="am1QFlPMtwa2UrXQsI82-86" style="edgeStyle=orthogonalEdgeStyle;rounded=0;orthogonalLoop=1;jettySize=auto;html=1;" edge="1" parent="WIyWlLk6GJQsqaUBKTNV-1" source="am1QFlPMtwa2UrXQsI82-18" target="am1QFlPMtwa2UrXQsI82-85">
          <mxGeometry relative="1" as="geometry" />
        </mxCell>
        <mxCell id="am1QFlPMtwa2UrXQsI82-18" value="Task panel" style="whiteSpace=wrap;html=1;rounded=1;fillColor=#76608a;fontColor=#ffffff;strokeColor=#432D57;" vertex="1" parent="WIyWlLk6GJQsqaUBKTNV-1">
          <mxGeometry x="675" y="367" width="120" height="60" as="geometry" />
        </mxCell>
        <mxCell id="am1QFlPMtwa2UrXQsI82-53" style="edgeStyle=orthogonalEdgeStyle;rounded=0;orthogonalLoop=1;jettySize=auto;html=1;entryX=0.5;entryY=0;entryDx=0;entryDy=0;exitX=0.5;exitY=1;exitDx=0;exitDy=0;" edge="1" parent="WIyWlLk6GJQsqaUBKTNV-1" source="am1QFlPMtwa2UrXQsI82-20">
          <mxGeometry relative="1" as="geometry">
            <mxPoint x="120" y="901" as="targetPoint" />
          </mxGeometry>
        </mxCell>
        <mxCell id="am1QFlPMtwa2UrXQsI82-20" value="Show user information" style="whiteSpace=wrap;html=1;rounded=1;fillColor=#76608a;fontColor=#ffffff;strokeColor=#432D57;" vertex="1" parent="WIyWlLk6GJQsqaUBKTNV-1">
          <mxGeometry x="205" y="700" width="120" height="60" as="geometry" />
        </mxCell>
        <mxCell id="am1QFlPMtwa2UrXQsI82-56" style="edgeStyle=orthogonalEdgeStyle;rounded=0;orthogonalLoop=1;jettySize=auto;html=1;" edge="1" parent="WIyWlLk6GJQsqaUBKTNV-1" source="am1QFlPMtwa2UrXQsI82-22" target="am1QFlPMtwa2UrXQsI82-55">
          <mxGeometry relative="1" as="geometry" />
        </mxCell>
        <mxCell id="am1QFlPMtwa2UrXQsI82-22" value="Settings" style="whiteSpace=wrap;html=1;fillColor=#76608a;strokeColor=#432D57;fontColor=#ffffff;rounded=1;" vertex="1" parent="WIyWlLk6GJQsqaUBKTNV-1">
          <mxGeometry x="-88" y="700" width="120" height="60" as="geometry" />
        </mxCell>
        <mxCell id="am1QFlPMtwa2UrXQsI82-54" style="edgeStyle=orthogonalEdgeStyle;rounded=0;orthogonalLoop=1;jettySize=auto;html=1;entryX=0.5;entryY=1;entryDx=0;entryDy=0;exitX=0.5;exitY=0;exitDx=0;exitDy=0;" edge="1" parent="WIyWlLk6GJQsqaUBKTNV-1" source="am1QFlPMtwa2UrXQsI82-71" target="am1QFlPMtwa2UrXQsI82-27">
          <mxGeometry relative="1" as="geometry">
            <mxPoint x="120" y="901" as="sourcePoint" />
          </mxGeometry>
        </mxCell>
        <mxCell id="am1QFlPMtwa2UrXQsI82-29" style="edgeStyle=orthogonalEdgeStyle;rounded=0;orthogonalLoop=1;jettySize=auto;html=1;" edge="1" parent="WIyWlLk6GJQsqaUBKTNV-1" source="am1QFlPMtwa2UrXQsI82-27" target="am1QFlPMtwa2UrXQsI82-20">
          <mxGeometry relative="1" as="geometry" />
        </mxCell>
        <mxCell id="am1QFlPMtwa2UrXQsI82-33" style="edgeStyle=orthogonalEdgeStyle;rounded=0;orthogonalLoop=1;jettySize=auto;html=1;entryX=0.5;entryY=0;entryDx=0;entryDy=0;exitX=0;exitY=0.5;exitDx=0;exitDy=0;" edge="1" parent="WIyWlLk6GJQsqaUBKTNV-1" source="am1QFlPMtwa2UrXQsI82-27" target="am1QFlPMtwa2UrXQsI82-22">
          <mxGeometry relative="1" as="geometry" />
        </mxCell>
        <mxCell id="am1QFlPMtwa2UrXQsI82-83" style="edgeStyle=orthogonalEdgeStyle;rounded=0;orthogonalLoop=1;jettySize=auto;html=1;entryX=0.5;entryY=1;entryDx=0;entryDy=0;" edge="1" parent="WIyWlLk6GJQsqaUBKTNV-1" source="am1QFlPMtwa2UrXQsI82-27" target="am1QFlPMtwa2UrXQsI82-82">
          <mxGeometry relative="1" as="geometry" />
        </mxCell>
        <mxCell id="am1QFlPMtwa2UrXQsI82-27" value="&lt;font color=&quot;#ffffff&quot;&gt;choose user menu&lt;/font&gt;" style="rhombus;whiteSpace=wrap;html=1;rounded=1;fillColor=#fa6800;fontColor=#000000;strokeColor=#C73500;" vertex="1" parent="WIyWlLk6GJQsqaUBKTNV-1">
          <mxGeometry x="70" y="551" width="100" height="93" as="geometry" />
        </mxCell>
        <mxCell id="am1QFlPMtwa2UrXQsI82-47" style="edgeStyle=orthogonalEdgeStyle;rounded=0;orthogonalLoop=1;jettySize=auto;html=1;" edge="1" parent="WIyWlLk6GJQsqaUBKTNV-1" source="am1QFlPMtwa2UrXQsI82-45" target="am1QFlPMtwa2UrXQsI82-14">
          <mxGeometry relative="1" as="geometry" />
        </mxCell>
        <mxCell id="am1QFlPMtwa2UrXQsI82-45" value="Main Menu" style="whiteSpace=wrap;html=1;fillColor=#76608a;strokeColor=#432D57;fontColor=#ffffff;rounded=1;" vertex="1" parent="WIyWlLk6GJQsqaUBKTNV-1">
          <mxGeometry x="470" y="118" width="120" height="60" as="geometry" />
        </mxCell>
        <mxCell id="am1QFlPMtwa2UrXQsI82-58" style="edgeStyle=orthogonalEdgeStyle;rounded=0;orthogonalLoop=1;jettySize=auto;html=1;" edge="1" parent="WIyWlLk6GJQsqaUBKTNV-1" source="am1QFlPMtwa2UrXQsI82-55" target="am1QFlPMtwa2UrXQsI82-57">
          <mxGeometry relative="1" as="geometry" />
        </mxCell>
        <mxCell id="am1QFlPMtwa2UrXQsI82-60" style="edgeStyle=orthogonalEdgeStyle;rounded=0;orthogonalLoop=1;jettySize=auto;html=1;" edge="1" parent="WIyWlLk6GJQsqaUBKTNV-1" source="am1QFlPMtwa2UrXQsI82-55" target="am1QFlPMtwa2UrXQsI82-59">
          <mxGeometry relative="1" as="geometry" />
        </mxCell>
        <mxCell id="am1QFlPMtwa2UrXQsI82-73" style="edgeStyle=orthogonalEdgeStyle;rounded=0;orthogonalLoop=1;jettySize=auto;html=1;entryX=0.5;entryY=0;entryDx=0;entryDy=0;" edge="1" parent="WIyWlLk6GJQsqaUBKTNV-1" source="am1QFlPMtwa2UrXQsI82-55" target="am1QFlPMtwa2UrXQsI82-72">
          <mxGeometry relative="1" as="geometry">
            <Array as="points">
              <mxPoint x="-236" y="674" />
              <mxPoint x="-620" y="674" />
            </Array>
          </mxGeometry>
        </mxCell>
        <mxCell id="am1QFlPMtwa2UrXQsI82-55" value="&lt;font color=&quot;#ffffff&quot;&gt;Do you change?&lt;/font&gt;" style="rhombus;whiteSpace=wrap;html=1;rounded=1;fillColor=#fa6800;fontColor=#000000;strokeColor=#C73500;" vertex="1" parent="WIyWlLk6GJQsqaUBKTNV-1">
          <mxGeometry x="-286" y="683.5" width="100" height="93" as="geometry" />
        </mxCell>
        <mxCell id="am1QFlPMtwa2UrXQsI82-62" value="" style="edgeStyle=orthogonalEdgeStyle;rounded=0;orthogonalLoop=1;jettySize=auto;html=1;" edge="1" parent="WIyWlLk6GJQsqaUBKTNV-1" source="am1QFlPMtwa2UrXQsI82-57" target="am1QFlPMtwa2UrXQsI82-61">
          <mxGeometry relative="1" as="geometry" />
        </mxCell>
        <mxCell id="am1QFlPMtwa2UrXQsI82-57" value="Change username" style="whiteSpace=wrap;html=1;fillColor=#76608a;strokeColor=#432D57;fontColor=#ffffff;rounded=1;" vertex="1" parent="WIyWlLk6GJQsqaUBKTNV-1">
          <mxGeometry x="-508" y="700" width="120" height="60" as="geometry" />
        </mxCell>
        <mxCell id="am1QFlPMtwa2UrXQsI82-66" style="edgeStyle=orthogonalEdgeStyle;rounded=0;orthogonalLoop=1;jettySize=auto;html=1;entryX=0.5;entryY=0;entryDx=0;entryDy=0;" edge="1" parent="WIyWlLk6GJQsqaUBKTNV-1" source="am1QFlPMtwa2UrXQsI82-59" target="am1QFlPMtwa2UrXQsI82-65">
          <mxGeometry relative="1" as="geometry" />
        </mxCell>
        <mxCell id="am1QFlPMtwa2UrXQsI82-59" value="Change password" style="whiteSpace=wrap;html=1;fillColor=#76608a;strokeColor=#432D57;fontColor=#ffffff;rounded=1;" vertex="1" parent="WIyWlLk6GJQsqaUBKTNV-1">
          <mxGeometry x="-296" y="843" width="120" height="60" as="geometry" />
        </mxCell>
        <mxCell id="am1QFlPMtwa2UrXQsI82-64" value="" style="edgeStyle=orthogonalEdgeStyle;rounded=0;orthogonalLoop=1;jettySize=auto;html=1;" edge="1" parent="WIyWlLk6GJQsqaUBKTNV-1" source="am1QFlPMtwa2UrXQsI82-61" target="am1QFlPMtwa2UrXQsI82-63">
          <mxGeometry relative="1" as="geometry" />
        </mxCell>
        <mxCell id="am1QFlPMtwa2UrXQsI82-61" value="Enter new username" style="whiteSpace=wrap;html=1;fillColor=#76608a;strokeColor=#432D57;fontColor=#ffffff;rounded=1;" vertex="1" parent="WIyWlLk6GJQsqaUBKTNV-1">
          <mxGeometry x="-508" y="841" width="120" height="60" as="geometry" />
        </mxCell>
        <mxCell id="am1QFlPMtwa2UrXQsI82-69" style="edgeStyle=orthogonalEdgeStyle;rounded=0;orthogonalLoop=1;jettySize=auto;html=1;entryX=0.5;entryY=1;entryDx=0;entryDy=0;" edge="1" parent="WIyWlLk6GJQsqaUBKTNV-1" source="am1QFlPMtwa2UrXQsI82-63">
          <mxGeometry relative="1" as="geometry">
            <mxPoint x="120" y="961" as="targetPoint" />
            <Array as="points">
              <mxPoint x="120" y="1032" />
            </Array>
          </mxGeometry>
        </mxCell>
        <mxCell id="am1QFlPMtwa2UrXQsI82-63" value="Username changed" style="whiteSpace=wrap;html=1;fillColor=#76608a;strokeColor=#432D57;fontColor=#ffffff;rounded=1;" vertex="1" parent="WIyWlLk6GJQsqaUBKTNV-1">
          <mxGeometry x="-508" y="982" width="120" height="60" as="geometry" />
        </mxCell>
        <mxCell id="am1QFlPMtwa2UrXQsI82-68" value="" style="edgeStyle=orthogonalEdgeStyle;rounded=0;orthogonalLoop=1;jettySize=auto;html=1;" edge="1" parent="WIyWlLk6GJQsqaUBKTNV-1" source="am1QFlPMtwa2UrXQsI82-65" target="am1QFlPMtwa2UrXQsI82-67">
          <mxGeometry relative="1" as="geometry" />
        </mxCell>
        <mxCell id="am1QFlPMtwa2UrXQsI82-65" value="Enter new password" style="whiteSpace=wrap;html=1;fillColor=#76608a;strokeColor=#432D57;fontColor=#ffffff;rounded=1;" vertex="1" parent="WIyWlLk6GJQsqaUBKTNV-1">
          <mxGeometry x="-296" y="945" width="120" height="60" as="geometry" />
        </mxCell>
        <mxCell id="am1QFlPMtwa2UrXQsI82-70" style="edgeStyle=orthogonalEdgeStyle;rounded=0;orthogonalLoop=1;jettySize=auto;html=1;entryX=0.5;entryY=1;entryDx=0;entryDy=0;" edge="1" parent="WIyWlLk6GJQsqaUBKTNV-1" source="am1QFlPMtwa2UrXQsI82-67" target="am1QFlPMtwa2UrXQsI82-71">
          <mxGeometry relative="1" as="geometry">
            <mxPoint x="120" y="961" as="targetPoint" />
          </mxGeometry>
        </mxCell>
        <mxCell id="am1QFlPMtwa2UrXQsI82-67" value="Password changed" style="whiteSpace=wrap;html=1;fillColor=#76608a;strokeColor=#432D57;fontColor=#ffffff;rounded=1;" vertex="1" parent="WIyWlLk6GJQsqaUBKTNV-1">
          <mxGeometry x="-296" y="1085" width="120" height="60" as="geometry" />
        </mxCell>
        <mxCell id="am1QFlPMtwa2UrXQsI82-71" value="Go back" style="ellipse;whiteSpace=wrap;html=1;aspect=fixed;fillColor=#e51400;fontColor=#ffffff;strokeColor=#B20000;" vertex="1" parent="WIyWlLk6GJQsqaUBKTNV-1">
          <mxGeometry x="91.5" y="903" width="57" height="57" as="geometry" />
        </mxCell>
        <mxCell id="am1QFlPMtwa2UrXQsI82-75" style="edgeStyle=orthogonalEdgeStyle;rounded=0;orthogonalLoop=1;jettySize=auto;html=1;entryX=0.5;entryY=0;entryDx=0;entryDy=0;" edge="1" parent="WIyWlLk6GJQsqaUBKTNV-1" source="am1QFlPMtwa2UrXQsI82-72" target="am1QFlPMtwa2UrXQsI82-74">
          <mxGeometry relative="1" as="geometry" />
        </mxCell>
        <mxCell id="am1QFlPMtwa2UrXQsI82-72" value="Delete account" style="whiteSpace=wrap;html=1;fillColor=#76608a;strokeColor=#432D57;fontColor=#ffffff;rounded=1;" vertex="1" parent="WIyWlLk6GJQsqaUBKTNV-1">
          <mxGeometry x="-680" y="700" width="120" height="60" as="geometry" />
        </mxCell>
        <mxCell id="am1QFlPMtwa2UrXQsI82-77" style="edgeStyle=orthogonalEdgeStyle;rounded=0;orthogonalLoop=1;jettySize=auto;html=1;entryX=0.5;entryY=0;entryDx=0;entryDy=0;" edge="1" parent="WIyWlLk6GJQsqaUBKTNV-1" source="am1QFlPMtwa2UrXQsI82-74" target="am1QFlPMtwa2UrXQsI82-76">
          <mxGeometry relative="1" as="geometry" />
        </mxCell>
        <mxCell id="am1QFlPMtwa2UrXQsI82-74" value="Enter new password" style="whiteSpace=wrap;html=1;fillColor=#76608a;strokeColor=#432D57;fontColor=#ffffff;rounded=1;" vertex="1" parent="WIyWlLk6GJQsqaUBKTNV-1">
          <mxGeometry x="-680" y="841" width="120" height="60" as="geometry" />
        </mxCell>
        <mxCell id="am1QFlPMtwa2UrXQsI82-79" style="edgeStyle=orthogonalEdgeStyle;rounded=0;orthogonalLoop=1;jettySize=auto;html=1;entryX=0.5;entryY=0;entryDx=0;entryDy=0;" edge="1" parent="WIyWlLk6GJQsqaUBKTNV-1" source="am1QFlPMtwa2UrXQsI82-76" target="am1QFlPMtwa2UrXQsI82-78">
          <mxGeometry relative="1" as="geometry" />
        </mxCell>
        <mxCell id="am1QFlPMtwa2UrXQsI82-76" value="Account deleted" style="whiteSpace=wrap;html=1;fillColor=#76608a;strokeColor=#432D57;fontColor=#ffffff;rounded=1;" vertex="1" parent="WIyWlLk6GJQsqaUBKTNV-1">
          <mxGeometry x="-680" y="982" width="120" height="60" as="geometry" />
        </mxCell>
        <mxCell id="am1QFlPMtwa2UrXQsI82-78" value="End" style="ellipse;whiteSpace=wrap;html=1;aspect=fixed;fillColor=#FF0000;fontColor=#ffffff;strokeColor=#3700CC;" vertex="1" parent="WIyWlLk6GJQsqaUBKTNV-1">
          <mxGeometry x="-648.5" y="1123" width="57" height="57" as="geometry" />
        </mxCell>
        <mxCell id="am1QFlPMtwa2UrXQsI82-84" style="edgeStyle=orthogonalEdgeStyle;rounded=0;orthogonalLoop=1;jettySize=auto;html=1;" edge="1" parent="WIyWlLk6GJQsqaUBKTNV-1" source="am1QFlPMtwa2UrXQsI82-82" target="am1QFlPMtwa2UrXQsI82-14">
          <mxGeometry relative="1" as="geometry" />
        </mxCell>
        <mxCell id="am1QFlPMtwa2UrXQsI82-82" value="Go back" style="ellipse;whiteSpace=wrap;html=1;aspect=fixed;fillColor=#e51400;fontColor=#ffffff;strokeColor=#B20000;" vertex="1" parent="WIyWlLk6GJQsqaUBKTNV-1">
          <mxGeometry x="-3" y="263" width="57" height="57" as="geometry" />
        </mxCell>
        <mxCell id="am1QFlPMtwa2UrXQsI82-88" style="edgeStyle=orthogonalEdgeStyle;rounded=0;orthogonalLoop=1;jettySize=auto;html=1;exitX=0.5;exitY=1;exitDx=0;exitDy=0;entryX=0.5;entryY=0;entryDx=0;entryDy=0;" edge="1" parent="WIyWlLk6GJQsqaUBKTNV-1" source="am1QFlPMtwa2UrXQsI82-85" target="am1QFlPMtwa2UrXQsI82-87">
          <mxGeometry relative="1" as="geometry">
            <Array as="points">
              <mxPoint x="1015" y="466" />
              <mxPoint x="619" y="466" />
            </Array>
          </mxGeometry>
        </mxCell>
        <mxCell id="am1QFlPMtwa2UrXQsI82-93" style="edgeStyle=orthogonalEdgeStyle;rounded=0;orthogonalLoop=1;jettySize=auto;html=1;" edge="1" parent="WIyWlLk6GJQsqaUBKTNV-1" source="am1QFlPMtwa2UrXQsI82-85" target="am1QFlPMtwa2UrXQsI82-89">
          <mxGeometry relative="1" as="geometry">
            <Array as="points">
              <mxPoint x="1015" y="465" />
              <mxPoint x="822" y="465" />
            </Array>
          </mxGeometry>
        </mxCell>
        <mxCell id="am1QFlPMtwa2UrXQsI82-95" style="edgeStyle=orthogonalEdgeStyle;rounded=0;orthogonalLoop=1;jettySize=auto;html=1;exitX=0.5;exitY=1;exitDx=0;exitDy=0;entryX=0.5;entryY=0;entryDx=0;entryDy=0;" edge="1" parent="WIyWlLk6GJQsqaUBKTNV-1" source="am1QFlPMtwa2UrXQsI82-85" target="am1QFlPMtwa2UrXQsI82-91">
          <mxGeometry relative="1" as="geometry">
            <Array as="points">
              <mxPoint x="1015" y="466" />
              <mxPoint x="1252" y="466" />
            </Array>
          </mxGeometry>
        </mxCell>
        <mxCell id="am1QFlPMtwa2UrXQsI82-97" style="edgeStyle=orthogonalEdgeStyle;rounded=0;orthogonalLoop=1;jettySize=auto;html=1;entryX=0.5;entryY=0;entryDx=0;entryDy=0;" edge="1" parent="WIyWlLk6GJQsqaUBKTNV-1" source="am1QFlPMtwa2UrXQsI82-85" target="am1QFlPMtwa2UrXQsI82-90">
          <mxGeometry relative="1" as="geometry" />
        </mxCell>
        <mxCell id="am1QFlPMtwa2UrXQsI82-99" style="edgeStyle=orthogonalEdgeStyle;rounded=0;orthogonalLoop=1;jettySize=auto;html=1;entryX=0.5;entryY=1;entryDx=0;entryDy=0;" edge="1" parent="WIyWlLk6GJQsqaUBKTNV-1" source="am1QFlPMtwa2UrXQsI82-85" target="am1QFlPMtwa2UrXQsI82-98">
          <mxGeometry relative="1" as="geometry" />
        </mxCell>
        <mxCell id="am1QFlPMtwa2UrXQsI82-85" value="&lt;font color=&quot;#ffffff&quot;&gt;Choose task operation&lt;/font&gt;" style="rhombus;whiteSpace=wrap;html=1;rounded=1;fillColor=#fa6800;fontColor=#000000;strokeColor=#C73500;" vertex="1" parent="WIyWlLk6GJQsqaUBKTNV-1">
          <mxGeometry x="965" y="350.5" width="100" height="93" as="geometry" />
        </mxCell>
        <mxCell id="am1QFlPMtwa2UrXQsI82-102" value="" style="edgeStyle=orthogonalEdgeStyle;rounded=0;orthogonalLoop=1;jettySize=auto;html=1;" edge="1" parent="WIyWlLk6GJQsqaUBKTNV-1" source="am1QFlPMtwa2UrXQsI82-87" target="am1QFlPMtwa2UrXQsI82-101">
          <mxGeometry relative="1" as="geometry" />
        </mxCell>
        <mxCell id="am1QFlPMtwa2UrXQsI82-87" value="Create task" style="whiteSpace=wrap;html=1;rounded=1;fillColor=#76608a;fontColor=#ffffff;strokeColor=#432D57;" vertex="1" parent="WIyWlLk6GJQsqaUBKTNV-1">
          <mxGeometry x="559" y="534" width="120" height="60" as="geometry" />
        </mxCell>
        <mxCell id="am1QFlPMtwa2UrXQsI82-106" value="" style="edgeStyle=orthogonalEdgeStyle;rounded=0;orthogonalLoop=1;jettySize=auto;html=1;" edge="1" parent="WIyWlLk6GJQsqaUBKTNV-1" source="am1QFlPMtwa2UrXQsI82-89" target="am1QFlPMtwa2UrXQsI82-105">
          <mxGeometry relative="1" as="geometry" />
        </mxCell>
        <mxCell id="am1QFlPMtwa2UrXQsI82-89" value="show task" style="whiteSpace=wrap;html=1;rounded=1;fillColor=#76608a;fontColor=#ffffff;strokeColor=#432D57;" vertex="1" parent="WIyWlLk6GJQsqaUBKTNV-1">
          <mxGeometry x="761" y="534" width="120" height="60" as="geometry" />
        </mxCell>
        <mxCell id="am1QFlPMtwa2UrXQsI82-110" value="" style="edgeStyle=orthogonalEdgeStyle;rounded=0;orthogonalLoop=1;jettySize=auto;html=1;" edge="1" parent="WIyWlLk6GJQsqaUBKTNV-1" source="am1QFlPMtwa2UrXQsI82-90" target="am1QFlPMtwa2UrXQsI82-109">
          <mxGeometry relative="1" as="geometry" />
        </mxCell>
        <mxCell id="am1QFlPMtwa2UrXQsI82-90" value="Update task" style="whiteSpace=wrap;html=1;rounded=1;fillColor=#76608a;fontColor=#ffffff;strokeColor=#432D57;" vertex="1" parent="WIyWlLk6GJQsqaUBKTNV-1">
          <mxGeometry x="955" y="534" width="120" height="60" as="geometry" />
        </mxCell>
        <mxCell id="am1QFlPMtwa2UrXQsI82-117" style="edgeStyle=orthogonalEdgeStyle;rounded=0;orthogonalLoop=1;jettySize=auto;html=1;entryX=0.5;entryY=0;entryDx=0;entryDy=0;" edge="1" parent="WIyWlLk6GJQsqaUBKTNV-1" source="am1QFlPMtwa2UrXQsI82-91" target="am1QFlPMtwa2UrXQsI82-115">
          <mxGeometry relative="1" as="geometry" />
        </mxCell>
        <mxCell id="am1QFlPMtwa2UrXQsI82-91" value="Delete task" style="whiteSpace=wrap;html=1;rounded=1;fillColor=#76608a;fontColor=#ffffff;strokeColor=#432D57;" vertex="1" parent="WIyWlLk6GJQsqaUBKTNV-1">
          <mxGeometry x="1192" y="534" width="120" height="60" as="geometry" />
        </mxCell>
        <mxCell id="am1QFlPMtwa2UrXQsI82-121" value="" style="edgeStyle=orthogonalEdgeStyle;rounded=0;orthogonalLoop=1;jettySize=auto;html=1;" edge="1" parent="WIyWlLk6GJQsqaUBKTNV-1" source="am1QFlPMtwa2UrXQsI82-92" target="am1QFlPMtwa2UrXQsI82-120">
          <mxGeometry relative="1" as="geometry" />
        </mxCell>
        <mxCell id="am1QFlPMtwa2UrXQsI82-92" value="Show all tasks" style="whiteSpace=wrap;html=1;rounded=1;fillColor=#76608a;fontColor=#ffffff;strokeColor=#432D57;" vertex="1" parent="WIyWlLk6GJQsqaUBKTNV-1">
          <mxGeometry x="1429" y="534" width="120" height="60" as="geometry" />
        </mxCell>
        <mxCell id="am1QFlPMtwa2UrXQsI82-96" style="edgeStyle=orthogonalEdgeStyle;rounded=0;orthogonalLoop=1;jettySize=auto;html=1;entryX=0.5;entryY=0;entryDx=0;entryDy=0;exitX=0.5;exitY=1;exitDx=0;exitDy=0;" edge="1" parent="WIyWlLk6GJQsqaUBKTNV-1" source="am1QFlPMtwa2UrXQsI82-85" target="am1QFlPMtwa2UrXQsI82-92">
          <mxGeometry relative="1" as="geometry">
            <Array as="points">
              <mxPoint x="1015" y="466" />
              <mxPoint x="1489" y="466" />
            </Array>
          </mxGeometry>
        </mxCell>
        <mxCell id="am1QFlPMtwa2UrXQsI82-100" style="edgeStyle=orthogonalEdgeStyle;rounded=0;orthogonalLoop=1;jettySize=auto;html=1;entryX=1;entryY=0.5;entryDx=0;entryDy=0;" edge="1" parent="WIyWlLk6GJQsqaUBKTNV-1" source="am1QFlPMtwa2UrXQsI82-98" target="am1QFlPMtwa2UrXQsI82-14">
          <mxGeometry relative="1" as="geometry" />
        </mxCell>
        <mxCell id="am1QFlPMtwa2UrXQsI82-98" value="Go back" style="ellipse;whiteSpace=wrap;html=1;aspect=fixed;fillColor=#e51400;fontColor=#ffffff;strokeColor=#B20000;" vertex="1" parent="WIyWlLk6GJQsqaUBKTNV-1">
          <mxGeometry x="1146" y="263" width="57" height="57" as="geometry" />
        </mxCell>
        <mxCell id="am1QFlPMtwa2UrXQsI82-104" value="" style="edgeStyle=orthogonalEdgeStyle;rounded=0;orthogonalLoop=1;jettySize=auto;html=1;" edge="1" parent="WIyWlLk6GJQsqaUBKTNV-1" source="am1QFlPMtwa2UrXQsI82-101" target="am1QFlPMtwa2UrXQsI82-103">
          <mxGeometry relative="1" as="geometry" />
        </mxCell>
        <mxCell id="am1QFlPMtwa2UrXQsI82-101" value="Enter task: name,desc,priority" style="whiteSpace=wrap;html=1;fillColor=#76608a;strokeColor=#432D57;fontColor=#ffffff;rounded=1;" vertex="1" parent="WIyWlLk6GJQsqaUBKTNV-1">
          <mxGeometry x="559" y="674" width="120" height="60" as="geometry" />
        </mxCell>
        <mxCell id="am1QFlPMtwa2UrXQsI82-128" style="edgeStyle=orthogonalEdgeStyle;rounded=0;orthogonalLoop=1;jettySize=auto;html=1;entryX=0;entryY=0.5;entryDx=0;entryDy=0;" edge="1" parent="WIyWlLk6GJQsqaUBKTNV-1" source="am1QFlPMtwa2UrXQsI82-103" target="am1QFlPMtwa2UrXQsI82-122">
          <mxGeometry relative="1" as="geometry">
            <Array as="points">
              <mxPoint x="619" y="917" />
            </Array>
          </mxGeometry>
        </mxCell>
        <mxCell id="am1QFlPMtwa2UrXQsI82-103" value="The task created" style="whiteSpace=wrap;html=1;fillColor=#76608a;strokeColor=#432D57;fontColor=#ffffff;rounded=1;" vertex="1" parent="WIyWlLk6GJQsqaUBKTNV-1">
          <mxGeometry x="559" y="814" width="120" height="60" as="geometry" />
        </mxCell>
        <mxCell id="am1QFlPMtwa2UrXQsI82-108" value="" style="edgeStyle=orthogonalEdgeStyle;rounded=0;orthogonalLoop=1;jettySize=auto;html=1;" edge="1" parent="WIyWlLk6GJQsqaUBKTNV-1" source="am1QFlPMtwa2UrXQsI82-105" target="am1QFlPMtwa2UrXQsI82-107">
          <mxGeometry relative="1" as="geometry" />
        </mxCell>
        <mxCell id="am1QFlPMtwa2UrXQsI82-105" value="Enter task id" style="whiteSpace=wrap;html=1;rounded=1;fillColor=#76608a;fontColor=#ffffff;strokeColor=#432D57;" vertex="1" parent="WIyWlLk6GJQsqaUBKTNV-1">
          <mxGeometry x="761" y="674" width="120" height="60" as="geometry" />
        </mxCell>
        <mxCell id="am1QFlPMtwa2UrXQsI82-129" style="edgeStyle=orthogonalEdgeStyle;rounded=0;orthogonalLoop=1;jettySize=auto;html=1;entryX=0;entryY=0.5;entryDx=0;entryDy=0;" edge="1" parent="WIyWlLk6GJQsqaUBKTNV-1" source="am1QFlPMtwa2UrXQsI82-107" target="am1QFlPMtwa2UrXQsI82-122">
          <mxGeometry relative="1" as="geometry">
            <Array as="points">
              <mxPoint x="821" y="917" />
            </Array>
          </mxGeometry>
        </mxCell>
        <mxCell id="am1QFlPMtwa2UrXQsI82-107" value="Show&amp;nbsp; the task" style="whiteSpace=wrap;html=1;rounded=1;fillColor=#76608a;fontColor=#ffffff;strokeColor=#432D57;" vertex="1" parent="WIyWlLk6GJQsqaUBKTNV-1">
          <mxGeometry x="761" y="814" width="120" height="60" as="geometry" />
        </mxCell>
        <mxCell id="am1QFlPMtwa2UrXQsI82-112" style="edgeStyle=orthogonalEdgeStyle;rounded=0;orthogonalLoop=1;jettySize=auto;html=1;entryX=0.5;entryY=0;entryDx=0;entryDy=0;" edge="1" parent="WIyWlLk6GJQsqaUBKTNV-1" source="am1QFlPMtwa2UrXQsI82-109" target="am1QFlPMtwa2UrXQsI82-111">
          <mxGeometry relative="1" as="geometry" />
        </mxCell>
        <mxCell id="am1QFlPMtwa2UrXQsI82-109" value="Enter task id" style="whiteSpace=wrap;html=1;rounded=1;fillColor=#76608a;fontColor=#ffffff;strokeColor=#432D57;" vertex="1" parent="WIyWlLk6GJQsqaUBKTNV-1">
          <mxGeometry x="955" y="674" width="120" height="60" as="geometry" />
        </mxCell>
        <mxCell id="am1QFlPMtwa2UrXQsI82-114" value="" style="edgeStyle=orthogonalEdgeStyle;rounded=0;orthogonalLoop=1;jettySize=auto;html=1;" edge="1" parent="WIyWlLk6GJQsqaUBKTNV-1" source="am1QFlPMtwa2UrXQsI82-111" target="am1QFlPMtwa2UrXQsI82-113">
          <mxGeometry relative="1" as="geometry" />
        </mxCell>
        <mxCell id="am1QFlPMtwa2UrXQsI82-130" style="edgeStyle=orthogonalEdgeStyle;rounded=0;orthogonalLoop=1;jettySize=auto;html=1;entryX=0;entryY=0.5;entryDx=0;entryDy=0;" edge="1" parent="WIyWlLk6GJQsqaUBKTNV-1" source="am1QFlPMtwa2UrXQsI82-111" target="am1QFlPMtwa2UrXQsI82-122">
          <mxGeometry relative="1" as="geometry">
            <Array as="points">
              <mxPoint x="1015" y="917" />
            </Array>
          </mxGeometry>
        </mxCell>
        <mxCell id="am1QFlPMtwa2UrXQsI82-111" value="Enter task: name,desc,priority" style="whiteSpace=wrap;html=1;fillColor=#76608a;strokeColor=#432D57;fontColor=#ffffff;rounded=1;" vertex="1" parent="WIyWlLk6GJQsqaUBKTNV-1">
          <mxGeometry x="955" y="814" width="120" height="60" as="geometry" />
        </mxCell>
        <mxCell id="am1QFlPMtwa2UrXQsI82-125" style="edgeStyle=orthogonalEdgeStyle;rounded=0;orthogonalLoop=1;jettySize=auto;html=1;" edge="1" parent="WIyWlLk6GJQsqaUBKTNV-1" source="am1QFlPMtwa2UrXQsI82-113" target="am1QFlPMtwa2UrXQsI82-122">
          <mxGeometry relative="1" as="geometry" />
        </mxCell>
        <mxCell id="am1QFlPMtwa2UrXQsI82-113" value="The task updated" style="whiteSpace=wrap;html=1;fillColor=#76608a;strokeColor=#432D57;fontColor=#ffffff;rounded=1;" vertex="1" parent="WIyWlLk6GJQsqaUBKTNV-1">
          <mxGeometry x="955" y="954" width="120" height="60" as="geometry" />
        </mxCell>
        <mxCell id="am1QFlPMtwa2UrXQsI82-119" style="edgeStyle=orthogonalEdgeStyle;rounded=0;orthogonalLoop=1;jettySize=auto;html=1;" edge="1" parent="WIyWlLk6GJQsqaUBKTNV-1" source="am1QFlPMtwa2UrXQsI82-115" target="am1QFlPMtwa2UrXQsI82-118">
          <mxGeometry relative="1" as="geometry" />
        </mxCell>
        <mxCell id="am1QFlPMtwa2UrXQsI82-115" value="Enter task id" style="whiteSpace=wrap;html=1;rounded=1;fillColor=#76608a;fontColor=#ffffff;strokeColor=#432D57;" vertex="1" parent="WIyWlLk6GJQsqaUBKTNV-1">
          <mxGeometry x="1192" y="674" width="120" height="60" as="geometry" />
        </mxCell>
        <mxCell id="am1QFlPMtwa2UrXQsI82-118" value="The task deleted" style="whiteSpace=wrap;html=1;fillColor=#76608a;strokeColor=#432D57;fontColor=#ffffff;rounded=1;" vertex="1" parent="WIyWlLk6GJQsqaUBKTNV-1">
          <mxGeometry x="1192" y="814" width="120" height="60" as="geometry" />
        </mxCell>
        <mxCell id="am1QFlPMtwa2UrXQsI82-127" style="edgeStyle=orthogonalEdgeStyle;rounded=0;orthogonalLoop=1;jettySize=auto;html=1;entryX=0.5;entryY=0;entryDx=0;entryDy=0;" edge="1" parent="WIyWlLk6GJQsqaUBKTNV-1" source="am1QFlPMtwa2UrXQsI82-120" target="am1QFlPMtwa2UrXQsI82-122">
          <mxGeometry relative="1" as="geometry" />
        </mxCell>
        <mxCell id="am1QFlPMtwa2UrXQsI82-120" value="Show all tasks of this user" style="whiteSpace=wrap;html=1;rounded=1;fillColor=#76608a;fontColor=#ffffff;strokeColor=#432D57;" vertex="1" parent="WIyWlLk6GJQsqaUBKTNV-1">
          <mxGeometry x="1429" y="674" width="120" height="60" as="geometry" />
        </mxCell>
        <mxCell id="am1QFlPMtwa2UrXQsI82-131" style="edgeStyle=orthogonalEdgeStyle;rounded=0;orthogonalLoop=1;jettySize=auto;html=1;entryX=1;entryY=0.5;entryDx=0;entryDy=0;" edge="1" parent="WIyWlLk6GJQsqaUBKTNV-1" source="am1QFlPMtwa2UrXQsI82-122" target="am1QFlPMtwa2UrXQsI82-85">
          <mxGeometry relative="1" as="geometry">
            <Array as="points">
              <mxPoint x="1606" y="916" />
              <mxPoint x="1606" y="397" />
            </Array>
          </mxGeometry>
        </mxCell>
        <mxCell id="am1QFlPMtwa2UrXQsI82-122" value="Go back" style="ellipse;whiteSpace=wrap;html=1;aspect=fixed;fillColor=#e51400;fontColor=#ffffff;strokeColor=#B20000;" vertex="1" parent="WIyWlLk6GJQsqaUBKTNV-1">
          <mxGeometry x="1460.5" y="888" width="57" height="57" as="geometry" />
        </mxCell>
      </root>
    </mxGraphModel>
  </diagram>
</mxfile>
